<?xml version="1.0" encoding="UTF-8" standalone="no"?>
<svg xmlns:rdf="http://www.w3.org/1999/02/22-rdf-syntax-ns#" xmlns="http://www.w3.org/2000/svg" height="80" width="286" version="1.1" xmlns:cc="http://creativecommons.org/ns#" xmlns:dc="http://purl.org/dc/elements/1.1/">
<g transform="translate(-13.091 -106.72)">
<path fill-opacity="0" d="m13.091 186.72h286v-80h-286v80z"/>
<g fill="#fff">
<path d="m35.989 163.86h7.671v-34.286h-7.671v34.286z"/>
<path d="m67.351 135.46c-2.6662 0-4.7306 1.0001-6.1932 2.9996-1.4626 2-2.1938 4.7869-2.1938 8.3606 0 7.4362 2.7957 11.155 8.387 11.155 2.3461 0 5.1876-0.58557 8.524-1.7567v5.9312c-2.7422 1.1406-5.8046 1.7108-9.1867 1.7108-4.8602 0-8.5777-1.4712-11.152-4.414-2.5748-2.9428-3.8621-7.1665-3.8621-12.672 0-3.4673 0.63205-6.5051 1.8967-9.1132 1.2645-2.6081 3.0813-4.6081 5.4504-5.9995 2.3689-1.3916 5.1457-2.0873 8.3299-2.0873 3.2452 0 6.5053 0.78329 9.7809 2.3497l-2.2853 5.7486c-1.2493-0.59335-2.5062-1.1102-3.7706-1.5514-1.2647-0.44098-2.5062-0.66147-3.725-0.66147"/>
<path d="m90.348 146.71c0 3.721 0.70769 6.523 2.1227 8.4062 1.415 1.8836 3.5297 2.8249 6.3446 2.8249 5.6446 0 8.4669-3.7434 8.4669-11.231 0-7.5024-2.8072-11.254-8.4213-11.254-2.815 0-4.9374 0.94539-6.3676 2.8362-1.4302 1.891-2.1453 4.697-2.1453 8.4176zm24.352 0c0 5.513-1.3692 9.7503-4.1079 12.712s-6.6642 4.4424-11.776 4.4424c-5.1123 0-9.0378-1.4808-11.776-4.4424-2.7387-2.9615-4.1079-7.214-4.1079-12.757 0-5.5435 1.3729-9.777 4.1192-12.701 2.7465-2.9236 6.6833-4.3854 11.811-4.3854 5.1271 0 9.0491 1.4734 11.765 4.4195 2.7159 2.9467 4.0738 7.184 4.0738 12.712"/>
<path d="m144.09 154.15c0 3.0111-1.0855 5.3836-3.2562 7.1173-2.1708 1.7336-5.1922 2.6005-9.0608 2.6005-3.5654 0-6.7193-0.66886-9.4618-2.0075v-6.5697c2.2547 1.0038 4.1631 1.711 5.7247 2.1216 1.5616 0.41042 2.9892 0.61592 4.2853 0.61592 1.5538 0 2.7456-0.29658 3.5757-0.88973 0.8311-0.59316 1.2456-1.4751 1.2456-2.646 0-0.65387-0.18209-1.2356-0.54841-1.7452-0.36515-0.50908-0.90225-0.99968-1.6109-1.4712-0.70866-0.47133-2.1523-1.2243-4.3311-2.2584-2.0414-0.95785-3.5724-1.8779-4.5928-2.7601-1.0208-0.88195-1.8361-1.9085-2.4453-3.0794-0.60943-1.1711-0.91414-2.5398-0.91414-4.1062 0-2.9502 1.0017-5.2695 3.0052-6.9575 2.0034-1.6882 4.7717-2.5322 8.3072-2.5322 1.7369 0 3.3936 0.20531 4.9702 0.61593 1.5764 0.41061 3.2263 0.98859 4.9472 1.7337l-2.2853 5.4976c-1.7827-0.72997-3.2562-1.2394-4.4218-1.5284-1.1654-0.28879-2.3116-0.43339-3.4392-0.43339-1.3407 0-2.3689 0.31196-3.0856 0.93528-0.71568 0.6237-1.074 1.4372-1.074 2.4407 0 0.62391 0.14544 1.1674 0.43514 1.6312 0.28854 0.46394 0.75 0.91251 1.3818 1.3459 0.63205 0.43339 2.1295 1.2128 4.4904 2.3382 3.1234 1.4905 5.2644 2.9847 6.4218 4.4823 1.1575 1.4981 1.7369 3.3344 1.7369 5.5089"/>
</g>
<g>
<path d="m193.3 121.29c0 1.7357-1.4095 3.1429-3.1485 3.1429-1.7392 0-3.1485-1.4072-3.1485-3.1429s1.4093-3.1429 3.1485-3.1429c1.739 0 3.1485 1.4072 3.1485 3.1429" fill="#e71974"/>
<path d="m183.85 121.29c0 1.7357-1.4093 3.1429-3.1485 3.1429-1.739 0-3.1485-1.4072-3.1485-3.1429s1.4095-3.1429 3.1485-3.1429c1.7392 0 3.1485 1.4072 3.1485 3.1429" fill="#508ed2"/>
<path d="m174.41 121.29c0 1.7357-1.4093 3.1429-3.1485 3.1429-1.739 0-3.1485-1.4072-3.1485-3.1429s1.4095-3.1429 3.1485-3.1429c1.7392 0 3.1485 1.4072 3.1485 3.1429" fill="#e71974"/>
</g>
<g fill="#fff">
<path d="m155.17 175.29h1.6028v-57.143h-1.6028v57.143z"/>
<path d="m172.61 131.43c-0.65252 0-1.1574 0.24462-1.5148 0.73386-0.35832 0.48924-0.5369 1.1709-0.5369 2.0451 0 1.8192 0.68351 2.7288 2.0517 2.7288 0.57356 0 1.2686-0.14323 2.0849-0.4295v1.4508c-0.67085 0.27907-1.4197 0.4186-2.2474 0.4186-1.1884 0-2.0987-0.36002-2.7284-1.0799-0.62971-0.71985-0.94456-1.753-0.94456-3.0999 0-0.84828 0.1546-1.5913 0.4638-2.2294 0.31018-0.63792 0.75448-1.1272 1.3337-1.4675 0.57941-0.34056 1.2584-0.51084 2.0381-0.51084 0.79347 0 1.5914 0.19188 2.3929 0.57486l-0.55992 1.4062c-0.30569-0.14498-0.61255-0.27147-0.92175-0.37929-0.31017-0.108-0.61352-0.16191-0.91122-0.16191"/>
<path d="m179.65 135.37-0.65934 0.0222c-0.49578 0.015-0.86561 0.10412-1.1072 0.26797-0.24272 0.16367-0.36418 0.41295-0.36418 0.74768 0 0.47989 0.27606 0.71984 0.82779 0.71984 0.39498 0 0.711-0.11345 0.94807-0.34036 0.23589-0.22691 0.35482-0.52816 0.35482-0.90395v-0.51336zm0.50279 2.8907-0.32987-0.84828h-0.0446c-0.28737 0.3608-0.58273 0.61106-0.88608 0.75039-0.30354 0.13954-0.6995 0.2094-1.1873 0.2094-0.60105 0-1.0728-0.17106-1.4175-0.51337-0.34468-0.34231-0.51741-0.8296-0.51741-1.4621 0-0.66224 0.23238-1.1505 0.69599-1.4648 0.4638-0.31448 1.1633-0.48846 2.0987-0.52193l1.0853-0.0335v-0.27342c0-0.63247-0.32402-0.9487-0.97303-0.9487-0.49928 0-1.0865 0.15082-1.761 0.45207l-0.5644-1.1495c0.719-0.37558 1.5172-0.56357 2.3929-0.56357 0.83811 0 1.4815 0.18234 1.9281 0.54684 0.44762 0.36449 0.67084 0.91892 0.67084 1.6629v4.1575h-1.1906"/>
<path d="m186.4 131.91c0.23122 0 0.42364 0.0167 0.5759 0.0504l-0.12828 1.596c-0.13842-0.0374-0.30569-0.0559-0.5026-0.0559-0.5449 0-0.96854 0.13933-1.2721 0.4184-0.30452 0.27906-0.45561 0.66963-0.45561 1.1719v3.1754h-1.7059v-6.2388h1.2914l0.25188 1.0489h0.0836c0.19457-0.34971 0.45561-0.6315 0.78548-0.84537 0.32967-0.21387 0.68916-0.3209 1.0762-0.3209"/>
<path d="m190.88 133.27c-0.42129 0-0.72815 0.12941-0.92272 0.38785-0.19359 0.25863-0.29419 0.6854-0.30121 1.2807v0.18409c0 0.66983 0.0996 1.1495 0.29887 1.4397 0.19924 0.29035 0.51527 0.43533 0.94807 0.43533 0.35033 0 0.62854-0.16094 0.83577-0.48262 0.20607-0.32188 0.31018-0.78971 0.31018-1.4035s-0.10528-1.0742-0.31368-1.3811c-0.20841-0.30709-0.49344-0.46044-0.85528-0.46044zm0.54861-1.3616c0.73732 0 1.3154 0.28743 1.7322 0.8621 0.41779 0.57486 0.6262 1.3626 0.6262 2.3635 0 1.0304-0.21523 1.8283-0.64569 2.3938-0.43047 0.56552-1.0167 0.84828-1.7587 0.84828-0.73381 0-1.3097-0.26603-1.7265-0.79808h-0.11795l-0.28502 0.68657h-1.3029v-8.6831h1.7059v2.02c0 0.25668-0.0228 0.66788-0.0675 1.2332h0.0675c0.39849-0.61748 0.98921-0.92632 1.7725-0.92632"/>
<path d="m196.5 135.13c0 0.61748 0.10196 1.0843 0.30452 1.4006 0.20393 0.31623 0.53477 0.47425 0.99272 0.47425 0.45444 0 0.78196-0.15704 0.98121-0.47152 0.19905-0.31429 0.29867-0.78212 0.29867-1.4033 0-0.61768-0.1006-1.0808-0.30218-1.3897-0.20022-0.30864-0.53008-0.46316-0.98921-0.46316-0.45444 0-0.78196 0.15355-0.98335 0.46044-0.20159 0.30689-0.30238 0.77102-0.30238 1.3924zm4.3222 0c0 1.0156-0.26923 1.8098-0.80614 2.3827-0.53574 0.57292-1.2834 0.85938-2.2416 0.85938-0.60008 0-1.129-0.13116-1.5869-0.39349-0.45912-0.26213-0.81063-0.63889-1.0569-1.1299-0.24603-0.49118-0.36866-1.0641-0.36866-1.7188 0-1.0193 0.26573-1.812 0.79932-2.3773 0.53223-0.56552 1.2822-0.84828 2.2474-0.84828 0.59988 0 1.1288 0.13019 1.5867 0.39057 0.45912 0.26058 0.81063 0.63441 1.0569 1.1217 0.24603 0.48729 0.36983 1.0584 0.36983 1.7133"/>
<path d="m207.85 138.26h-1.7049v-3.644c0-0.45032-0.0801-0.78776-0.24038-1.0129-0.16025-0.22516-0.41564-0.33764-0.76598-0.33764-0.47744 0-0.82193 0.15899-1.0338 0.47698-0.21289 0.31818-0.31933 0.84556-0.31933 1.5821v2.9354h-1.7049v-6.2388h1.3029l0.22907 0.79788h0.0949c0.19008-0.30145 0.4523-0.52913 0.78548-0.68346 0.33318-0.15451 0.71217-0.23177 1.138-0.23177 0.72582 0 1.2777 0.19636 1.6544 0.58887 0.37665 0.39233 0.56459 0.95882 0.56459 1.6991v4.0682"/>
<path d="m170.87 146.52h0.57025c0.53339 0 0.93188-0.10528 1.1964-0.31545 0.26436-0.21018 0.39732-0.5161 0.39732-0.91796 0-0.40536-0.11113-0.70486-0.33318-0.89849-0.22108-0.19324-0.56908-0.29015-1.0418-0.29015h-0.78899v2.422zm3.9134-1.2949c0 0.87806-0.2747 1.5496-0.82428 2.0146-0.54958 0.46511-1.3315 0.69766-2.3447 0.69766h-0.74434v2.9018h-1.7322v-8.1584h2.6105c0.99134 0 1.7448 0.21289 2.2611 0.63888 0.51644 0.426 0.77398 1.0612 0.77398 1.9056"/>
<path d="m177.35 147.71c0 0.61768 0.10196 1.0845 0.30452 1.4008 0.20392 0.31623 0.53476 0.47425 0.99271 0.47425 0.45445 0 0.78197-0.15724 0.98122-0.47152 0.19924-0.31429 0.29886-0.78212 0.29886-1.4035 0-0.61748-0.10079-1.0806-0.30237-1.3895-0.20022-0.30884-0.53009-0.46316-0.98921-0.46316-0.45444 0-0.78197 0.15355-0.98336 0.46024-0.20158 0.30709-0.30237 0.77122-0.30237 1.3924zm4.3222 0c0 1.0156-0.26904 1.81-0.80615 2.3829-0.53573 0.57292-1.2834 0.85918-2.2418 0.85918-0.59988 0-1.1288-0.13096-1.5868-0.39329-0.45912-0.26233-0.81062-0.63889-1.0568-1.1301-0.24603-0.49099-0.36847-1.0639-0.36847-1.7188 0-1.0193 0.26553-1.8118 0.79913-2.3771 0.53223-0.56552 1.2822-0.84828 2.2474-0.84828 0.59987 0 1.1288 0.13019 1.5867 0.39057 0.45912 0.26038 0.81063 0.63441 1.0569 1.1217 0.24603 0.4873 0.36983 1.0585 0.36983 1.7131"/>
<path d="m186.42 144.48c0.23122 0 0.42247 0.0167 0.5759 0.0502l-0.12809 1.596c-0.13861-0.0372-0.30569-0.0559-0.50376-0.0559-0.54393 0-0.96757 0.13953-1.2721 0.4186-0.30335 0.27906-0.4558 0.66963-0.4558 1.1717v3.1754h-1.7047v-6.2388h1.2914l0.25208 1.0491h0.0834c0.19359-0.34971 0.45581-0.6315 0.78548-0.84537 0.32967-0.21406 0.68799-0.3209 1.0762-0.3209"/>
<path d="m190.93 149.59c0.2977 0 0.65603-0.065 1.0728-0.19519v1.2667c-0.4248 0.18974-0.94573 0.28451-1.5651 0.28451-0.68235 0-1.1781-0.17183-1.4895-0.51609-0.31154-0.34406-0.46712-0.86035-0.46712-1.5485v-3.008h-0.81647v-0.71985l0.94008-0.56922 0.49109-1.3167h1.09v1.328h1.7505v1.2778h-1.7505v3.008c0 0.24189 0.0686 0.42035 0.20489 0.53555 0.13511 0.1154 0.31603 0.17301 0.53925 0.17301"/>
<path d="m196.72 147.95-0.65934 0.0224c-0.49578 0.0148-0.86444 0.10411-1.1072 0.26778-0.24155 0.16366-0.363 0.41295-0.363 0.74787 0 0.47989 0.27586 0.71984 0.82778 0.71984 0.39498 0 0.70983-0.11346 0.9469-0.34036 0.23706-0.22691 0.35482-0.52836 0.35482-0.90395v-0.51356zm0.50376 2.8907-0.32967-0.84809h-0.0446c-0.28737 0.36079-0.58273 0.61086-0.88608 0.75039-0.30452 0.13954-0.70067 0.2092-1.1884 0.2092-0.59988 0-1.0728-0.17105-1.4175-0.51336-0.34449-0.34231-0.51624-0.82941-0.51624-1.4619 0-0.66224 0.23122-1.1505 0.69502-1.4648 0.46477-0.31448 1.1643-0.48846 2.0997-0.52193l1.0842-0.0335v-0.27342c0-0.63247-0.32382-0.9487-0.97205-0.9487-0.50026 0-1.0865 0.15062-1.7608 0.45206l-0.56557-1.1495c0.72017-0.37578 1.517-0.56357 2.3929-0.56357 0.83928 0 1.4817 0.18215 1.9293 0.54684 0.44645 0.36449 0.67084 0.91892 0.67084 1.6629v4.1574h-1.1908"/>
<path d="m199.99 150.84h1.7047v-8.6831h-1.7047v8.6831z"/>
</g>
</g>
</svg>
